<svg xmlns="http://www.w3.org/2000/svg" xmlns:xlink="http://www.w3.org/1999/xlink" width="100px" height="22px" viewBox="0 0 102 22" version="1.1">
<g id="surface1">
<path style=" stroke:none;fill-rule:evenodd;fill:rgb(1.568627%,22.352941%,84.313725%);fill-opacity:1;" d="M 0.0507812 11 C 0.0507812 4.859375 4.859375 0.0390625 11.042969 0.0390625 C 14.304688 0.0390625 17.351562 1.457031 19.277344 3.824219 C 19.636719 4.273438 19.761719 4.566406 19.761719 4.886719 C 19.761719 5.5 19.214844 6.011719 18.578125 6.011719 C 18.15625 6.011719 17.8125 5.84375 17.519531 5.5 C 15.847656 3.414062 13.679688 2.351562 11.078125 2.351562 C 6.273438 2.351562 2.652344 6.074219 2.652344 11 C 2.652344 15.910156 6.273438 19.648438 11.078125 19.648438 C 13.667969 19.648438 15.847656 18.558594 17.519531 16.5 C 17.8125 16.140625 18.15625 15.988281 18.578125 15.988281 C 19.214844 15.988281 19.761719 16.5 19.761719 17.113281 C 19.761719 17.433594 19.636719 17.726562 19.277344 18.175781 C 17.417969 20.554688 14.34375 21.960938 11.042969 21.960938 C 4.859375 21.960938 0.0507812 17.140625 0.0507812 11 M 24.328125 20.617188 L 24.328125 1.6875 C 24.328125 0.945312 24.835938 0.371094 25.578125 0.371094 C 26.277344 0.371094 26.824219 0.945312 26.824219 1.6875 L 26.824219 19.683594 L 35.828125 19.683594 C 36.503906 19.683594 36.976562 20.171875 36.976562 20.808594 C 36.976562 21.425781 36.492188 21.9375 35.828125 21.9375 L 25.640625 21.9375 C 24.875 21.9375 24.328125 21.347656 24.328125 20.617188 M 67.828125 10.460938 L 72.664062 10.460938 C 75.328125 10.460938 76.921875 8.980469 76.921875 6.574219 C 76.921875 4.195312 75.289062 2.660156 72.664062 2.660156 L 67.828125 2.660156 Z M 81.28125 20.835938 C 81.28125 21.449219 80.769531 21.960938 80.09375 21.960938 C 79.714844 21.960938 79.355469 21.730469 79.011719 21.285156 L 72.636719 12.699219 L 67.828125 12.699219 L 67.828125 20.667969 C 67.828125 21.375 67.28125 21.960938 66.582031 21.960938 C 65.839844 21.960938 65.332031 21.386719 65.332031 20.667969 L 65.332031 1.6875 C 65.332031 0.984375 65.878906 0.398438 66.605469 0.398438 L 72.75 0.398438 C 76.792969 0.398438 79.507812 2.863281 79.507812 6.535156 C 79.507812 9.363281 77.902344 11.484375 75.3125 12.316406 L 80.859375 19.863281 C 81.117188 20.195312 81.28125 20.515625 81.28125 20.835938 Z M 101.871094 20.835938 C 101.871094 21.449219 101.363281 21.960938 100.726562 21.960938 C 100.40625 21.960938 100.085938 21.796875 99.730469 21.449219 L 89.644531 11.101562 C 89.414062 10.847656 89.261719 10.550781 89.261719 10.234375 C 89.261719 9.914062 89.429688 9.617188 89.683594 9.335938 L 98.839844 0.5625 C 99.21875 0.203125 99.476562 0.0507812 99.792969 0.0507812 C 100.433594 0.0507812 100.941406 0.5625 100.941406 1.175781 C 100.941406 1.535156 100.777344 1.816406 100.394531 2.175781 L 92.015625 10.234375 L 101.402344 19.902344 C 101.746094 20.195312 101.871094 20.453125 101.871094 20.835938 Z M 88.546875 1.367188 L 88.546875 20.644531 C 88.546875 21.386719 88 21.960938 87.300781 21.960938 C 86.558594 21.960938 86.050781 21.386719 86.050781 20.644531 L 86.050781 1.367188 C 86.050781 0.625 86.558594 0.0507812 87.300781 0.0507812 C 88.011719 0.0507812 88.546875 0.625 88.546875 1.367188 Z M 60.484375 19.890625 L 52.390625 0.871094 C 52.132812 0.292969 51.753906 0 51.203125 0 C 50.65625 0 50.273438 0.292969 50.019531 0.871094 L 41.910156 19.890625 C 41.78125 20.210938 41.71875 20.464844 41.71875 20.695312 C 41.71875 21.335938 42.265625 21.910156 42.929688 21.910156 C 43.476562 21.910156 43.886719 21.589844 44.113281 21.078125 L 45.65625 17.394531 L 45.707031 17.253906 L 46.640625 15.003906 L 51.191406 3.761719 L 55.617188 15.003906 L 56.570312 17.253906 L 58.265625 21.078125 C 58.523438 21.589844 58.90625 21.910156 59.480469 21.910156 C 60.117188 21.910156 60.691406 21.335938 60.691406 20.695312 C 60.714844 20.464844 60.652344 20.210938 60.484375 19.890625 "/>
</g>
</svg>